<svg version="1.1" id="Layer_1" xmlns="http://www.w3.org/2000/svg" xmlns:xlink="http://www.w3.org/1999/xlink" x="0px" y="0px"
	 width="100%" viewBox="0 0 225 225" enable-background="new 0 0 225 225" xml:space="preserve">
<path fill="#FEFEFE" opacity="1.000000" stroke="none" 
	d="
M1.000000,85.000000 
	C1.000000,56.666672 1.000000,28.833344 1.000000,1.000011 
	C75.999977,1.000007 150.999954,1.000007 225.999954,1.000004 
	C225.999969,75.999969 225.999969,150.999939 225.999985,225.999939 
	C151.000046,225.999954 76.000092,225.999954 1.000068,225.999969 
	C1.000000,179.166672 1.000000,132.333328 1.000000,85.000000 
M156.751633,208.887268 
	C157.705917,207.945648 158.660187,207.004013 159.537125,206.020676 
	C159.537125,206.020676 159.504395,206.102234 160.472458,206.791321 
	C160.840988,206.215393 161.209534,205.639465 161.511261,205.027863 
	C161.511261,205.027863 161.505402,205.103394 162.470093,205.800430 
	C162.839432,205.224564 163.208771,204.648697 163.506607,204.031754 
	C163.506607,204.031754 163.523239,204.112503 164.418243,204.699738 
	C164.643173,204.150726 164.868118,203.601730 164.988586,203.037155 
	C164.988586,203.037155 164.979858,203.142395 165.163284,203.935989 
	C166.661911,203.491470 168.345078,203.347946 169.632294,202.558640 
	C207.169373,179.542038 226.390030,145.851059 223.351257,102.010490 
	C220.255585,57.348759 196.182816,26.231810 154.771652,8.855384 
	C153.021530,8.121017 150.938446,8.180171 148.951935,7.227438 
	C147.793427,7.012625 146.504303,7.054880 145.496750,6.542955 
	C136.136719,1.787222 126.130592,2.753755 116.161568,2.912301 
	C110.891884,2.996110 105.521370,1.670990 100.351440,2.285818 
	C69.987114,5.896863 44.918476,19.491028 26.244303,43.825272 
	C7.815001,67.840424 0.949267,95.221283 5.206744,125.136742 
	C7.185147,139.038116 11.451500,152.340027 19.279211,164.837952 
	C16.859726,167.882523 14.440241,170.927109 11.873203,174.157349 
	C35.145977,191.261841 58.116295,208.144043 81.267845,225.159424 
	C84.269127,221.485291 87.082466,218.041245 90.754890,214.777786 
	C109.039589,217.439056 127.275543,219.171310 145.851913,212.029297 
	C149.230606,211.006592 152.609299,209.983887 156.751633,208.887268 
z"/>
<path fill="#8199CF" opacity="1.000000" stroke="none" 
	d="
M145.040573,211.929199 
	C127.275543,219.171310 109.039589,217.439056 90.402893,214.374252 
	C101.709412,198.984207 113.367935,183.997681 125.258385,169.004486 
	C125.490311,168.997787 125.954819,168.994873 126.178680,168.899292 
	C126.688293,168.621292 126.882332,168.368500 127.450111,167.976562 
	C138.061798,167.894363 148.208115,167.902435 158.354218,167.861237 
	C167.896606,167.822479 173.138565,162.572205 173.144943,153.047028 
	C173.159760,130.924500 173.013336,108.800644 173.227509,86.680183 
	C173.297455,79.454147 170.536362,74.567749 163.920380,71.373291 
	C163.941589,62.935116 163.998886,54.951622 163.933060,46.969143 
	C163.876770,40.145325 161.694290,38.004375 154.963089,38.001682 
	C128.352829,37.991032 101.742577,37.992020 75.132324,38.001373 
	C68.989868,38.003532 67.061089,39.838032 67.018265,45.929893 
	C66.957466,54.577705 67.014488,63.226353 66.723099,72.049286 
	C60.286884,75.320892 57.589153,80.292427 57.959122,87.154648 
	C58.181599,91.281204 58.233047,95.449837 57.869518,99.556015 
	C57.753628,100.864967 56.003586,101.996353 55.094154,103.275032 
	C53.368404,105.701462 50.460278,108.079552 50.262844,110.648323 
	C49.720718,117.701790 50.328327,124.843620 50.127220,132.034058 
	C45.165268,137.094009 40.600899,142.111969 35.937298,147.035934 
	C30.494083,152.783035 24.964220,158.448059 19.471958,164.148697 
	C11.451500,152.340027 7.185147,139.038116 5.206744,125.136742 
	C0.949267,95.221283 7.815001,67.840424 26.244303,43.825272 
	C44.918476,19.491028 69.987114,5.896863 100.351440,2.285818 
	C105.521370,1.670990 110.891884,2.996110 116.161568,2.912301 
	C126.130592,2.753755 136.136719,1.787222 145.496750,6.542955 
	C146.504303,7.054880 147.793427,7.012625 149.128464,7.877652 
	C163.281128,13.918438 175.987640,21.492481 186.494995,32.153576 
	C210.888046,56.903591 221.998840,86.525009 218.135056,121.409592 
	C215.420609,145.917282 205.776749,167.192245 188.044647,184.357330 
	C180.946442,191.228561 172.702347,196.916061 164.979858,203.142395 
	C164.979858,203.142395 164.988586,203.037155 164.711151,203.104858 
	C164.130219,203.485870 163.826721,203.799179 163.523224,204.112488 
	C163.523239,204.112503 163.506607,204.031754 163.135452,204.076508 
	C162.344666,204.448654 161.925049,204.776031 161.505402,205.103394 
	C161.505402,205.103394 161.511261,205.027863 161.140915,205.083038 
	C160.348511,205.459549 159.926453,205.780884 159.504395,206.102234 
	C159.504395,206.102234 159.537125,206.020676 159.193466,206.052277 
	C157.901352,206.440277 156.952881,206.796692 155.665756,207.260559 
	C151.898254,208.888397 148.469421,210.408798 145.040573,211.929199 
z"/>
<path fill="#6562AC" opacity="1.000000" stroke="none" 
	d="
M125.026459,169.011169 
	C113.367935,183.997681 101.709412,198.984207 89.973358,214.283951 
	C87.082466,218.041245 84.269127,221.485291 81.267845,225.159424 
	C58.116295,208.144043 35.145977,191.261841 11.873203,174.157349 
	C14.440241,170.927109 16.859726,167.882523 19.375584,164.493317 
	C24.964220,158.448059 30.494083,152.783035 35.937298,147.035934 
	C40.600899,142.111969 45.165268,137.094009 50.372032,132.225327 
	C59.343071,135.859802 58.167297,143.168091 57.998726,150.077759 
	C57.994690,150.243195 58.013306,150.410400 57.996071,150.574127 
	C56.702724,162.861710 65.388786,169.004654 76.407272,167.832977 
	C92.587402,167.948425 108.300468,167.991394 124.123825,168.250870 
	C124.439888,168.733627 124.704002,168.914886 125.026459,169.011169 
z"/>
<path fill="#494B88" opacity="1.000000" stroke="none" 
	d="
M165.071564,203.539185 
	C172.702347,196.916061 180.946442,191.228561 188.044647,184.357330 
	C205.776749,167.192245 215.420609,145.917282 218.135056,121.409592 
	C221.998840,86.525009 210.888046,56.903591 186.494995,32.153576 
	C175.987640,21.492481 163.281128,13.918438 149.157730,8.198760 
	C150.938446,8.180171 153.021530,8.121017 154.771652,8.855384 
	C196.182816,26.231810 220.255585,57.348759 223.351257,102.010490 
	C226.390030,145.851059 207.169373,179.542038 169.632294,202.558640 
	C168.345078,203.347946 166.661911,203.491470 165.071564,203.539185 
z"/>
<path fill="#4B4D8A" opacity="1.000000" stroke="none" 
	d="
M145.446243,211.979248 
	C148.469421,210.408798 151.898254,208.888397 155.663208,207.561066 
	C155.995529,208.156479 155.991760,208.558838 155.988007,208.961182 
	C152.609299,209.983887 149.230606,211.006592 145.446243,211.979248 
z"/>
<path fill="#494B88" opacity="1.000000" stroke="none" 
	d="
M156.369812,208.924225 
	C155.991760,208.558838 155.995529,208.156479 156.001862,207.453629 
	C156.952881,206.796692 157.901352,206.440277 159.232147,206.073120 
	C158.660187,207.004013 157.705917,207.945648 156.369812,208.924225 
z"/>
<path fill="#494B88" opacity="1.000000" stroke="none" 
	d="
M163.970734,204.406113 
	C163.826721,203.799179 164.130219,203.485870 164.763382,203.112640 
	C164.868118,203.601730 164.643173,204.150726 163.970734,204.406113 
z"/>
<path fill="#494B88" opacity="1.000000" stroke="none" 
	d="
M161.987762,205.451920 
	C161.925049,204.776031 162.344666,204.448654 163.171204,204.097046 
	C163.208771,204.648697 162.839432,205.224564 161.987762,205.451920 
z"/>
<path fill="#494B88" opacity="1.000000" stroke="none" 
	d="
M159.988434,206.446777 
	C159.926453,205.780884 160.348511,205.459549 161.174316,205.100876 
	C161.209534,205.639465 160.840988,206.215393 159.988434,206.446777 
z"/>
<path fill="#224860" opacity="1.000000" stroke="none" 
	d="
M124.013535,168.034363 
	C108.300468,167.991394 92.587402,167.948425 76.382492,167.506775 
	C69.046593,161.105270 68.206123,153.247467 68.986412,144.871231 
	C69.094002,143.716278 69.129486,142.525833 68.978294,141.380890 
	C68.500183,137.760193 70.203728,136.836777 73.570747,136.933929 
	C80.554604,137.135361 87.549637,137.076431 94.537636,136.967819 
	C100.390869,136.876831 103.972046,133.096710 103.997169,127.234520 
	C104.017136,122.574814 104.009224,117.914948 103.999413,113.255173 
	C103.982910,105.414597 100.705162,102.090378 92.799324,102.017662 
	C86.475861,101.959488 80.144173,101.823715 73.830246,102.075760 
	C70.219009,102.219917 68.621193,101.262695 68.934723,97.376045 
	C69.241501,93.573112 68.350708,89.578499 69.176399,85.938118 
	C70.079086,81.958199 72.245567,78.238037 74.077492,74.510956 
	C74.685074,73.274826 75.962662,72.368019 77.401245,71.216537 
	C81.689255,71.097984 85.513016,71.161598 89.329895,71.028236 
	C94.903580,70.833488 100.472328,70.497269 106.429153,70.365311 
	C112.828690,70.636803 118.842255,70.764336 125.331123,70.943367 
	C135.538773,70.997261 145.271118,70.999657 155.423737,71.063339 
	C158.530350,71.359230 161.216705,71.593826 163.903061,71.828415 
	C170.536362,74.567749 173.297455,79.454147 173.227509,86.680183 
	C173.013336,108.800644 173.159760,130.924500 173.144943,153.047028 
	C173.138565,162.572205 167.896606,167.822479 158.354218,167.861237 
	C148.208115,167.902435 138.061798,167.894363 127.211227,167.941559 
	C126.506874,167.975296 126.033684,168.071899 125.698090,168.032562 
	C124.912834,168.006927 124.463188,168.020645 124.013535,168.034363 
M131.588898,144.009888 
	C136.502914,144.721329 133.579025,140.066422 135.299026,138.591019 
	C143.444580,137.438370 148.716782,131.591888 149.159195,126.822769 
	C149.774185,120.193726 147.350677,116.098045 140.562958,113.445671 
	C134.101868,110.920921 132.914505,107.893150 136.050903,100.347992 
	C137.392441,102.196861 138.482010,103.698479 139.240585,104.743927 
	C142.183807,104.490959 144.797623,104.266296 147.668900,104.019508 
	C147.579971,103.276360 147.586624,102.654778 147.424606,102.080795 
	C145.314789,94.605484 137.241364,94.538116 132.518936,90.276970 
	C132.099731,89.898705 130.264114,90.898331 129.202789,91.473061 
	C127.932281,92.161079 126.892319,93.374138 125.569199,93.848465 
	C119.951874,95.862213 115.888367,99.040413 115.906647,105.612747 
	C115.921722,111.031227 119.825241,115.795380 125.905243,118.393784 
	C127.225113,118.957848 128.791794,120.365906 129.068573,121.640625 
	C129.577850,123.986176 129.213913,126.521309 129.213913,130.186691 
	C124.231171,127.025932 120.365791,122.260651 113.895470,126.790131 
	C115.911057,129.784073 117.290848,134.037674 120.122635,135.522980 
	C124.362450,137.746811 128.701111,139.242447 131.588898,144.009888 
z"/>
<path fill="#163549" opacity="1.000000" stroke="none" 
	d="
M76.933929,71.310654 
	C75.962662,72.368019 74.685074,73.274826 74.077492,74.510956 
	C72.245567,78.238037 70.079086,81.958199 69.176399,85.938118 
	C68.350708,89.578499 69.241501,93.573112 68.934723,97.376045 
	C68.621193,101.262695 70.219009,102.219917 73.830246,102.075760 
	C80.144173,101.823715 86.475861,101.959488 92.799324,102.017662 
	C100.705162,102.090378 103.982910,105.414597 103.999413,113.255173 
	C104.009224,117.914948 104.017136,122.574814 103.997169,127.234520 
	C103.972046,133.096710 100.390869,136.876831 94.537636,136.967819 
	C87.549637,137.076431 80.554604,137.135361 73.570747,136.933929 
	C70.203728,136.836777 68.500183,137.760193 68.978294,141.380890 
	C69.129486,142.525833 69.094002,143.716278 68.986412,144.871231 
	C68.206123,153.247467 69.046593,161.105270 75.915428,167.434280 
	C65.388786,169.004654 56.702724,162.861710 57.996071,150.574127 
	C58.013306,150.410400 57.994690,150.243195 57.998726,150.077759 
	C58.167297,143.168091 59.343071,135.859802 50.725727,132.141754 
	C50.328327,124.843620 49.720718,117.701790 50.262844,110.648323 
	C50.460278,108.079552 53.368404,105.701462 55.094154,103.275032 
	C56.003586,101.996353 57.753628,100.864967 57.869518,99.556015 
	C58.233047,95.449837 58.181599,91.281204 57.959122,87.154648 
	C57.589153,80.292427 60.286884,75.320892 66.982620,72.141937 
	C67.998291,72.356979 68.456375,72.653999 69.251190,72.979233 
	C70.407791,72.477119 71.227654,71.946808 72.437027,71.344292 
	C73.618073,71.230621 74.409599,71.189163 75.489960,71.177200 
	C76.163834,71.241348 76.548882,71.276001 76.933929,71.310654 
M87.253204,110.933922 
	C81.087044,111.312492 77.872612,114.161034 77.784958,119.324455 
	C77.692001,124.799759 81.069023,127.812981 88.301987,128.805466 
	C89.694183,127.837654 91.275871,127.056679 92.446014,125.869926 
	C97.695656,120.545784 95.463562,113.230545 87.253204,110.933922 
z"/>
<path fill="#7ECAA7" opacity="1.000000" stroke="none" 
	d="
M75.201126,71.147705 
	C74.409599,71.189163 73.618073,71.230621 72.103302,71.245651 
	C70.558189,71.796478 69.736320,72.373749 68.914452,72.951027 
	C68.456375,72.653999 67.998291,72.356979 67.280685,71.967300 
	C67.014488,63.226353 66.957466,54.577705 67.018265,45.929893 
	C67.061089,39.838032 68.989868,38.003532 75.132324,38.001373 
	C101.742577,37.992020 128.352829,37.991032 154.963089,38.001682 
	C161.694290,38.004375 163.876770,40.145325 163.933060,46.969143 
	C163.998886,54.951622 163.941589,62.935116 163.920380,71.373291 
	C161.216705,71.593826 158.530350,71.359230 155.416870,70.598373 
	C154.993393,66.750931 155.167633,63.416531 154.912003,60.115417 
	C154.817215,58.891239 153.951218,56.974483 153.031021,56.690933 
	C147.802475,55.079819 145.527206,51.135586 144.279083,46.096584 
	C125.789566,46.096584 107.538094,46.039009 89.289001,46.220062 
	C88.008301,46.232769 86.561821,47.844410 85.515137,49.003849 
	C83.784561,50.920845 82.668915,54.334999 80.672478,54.892654 
	C74.772690,56.540611 74.720009,60.530083 75.075073,65.173210 
	C75.226730,67.156326 75.165581,69.155708 75.201126,71.147705 
z"/>
<path fill="#6D65B5" opacity="1.000000" stroke="none" 
	d="
M124.123825,168.250870 
	C124.463188,168.020645 124.912834,168.006927 125.679253,168.263275 
	C125.996017,168.533325 125.954819,168.994873 125.954819,168.994873 
	C125.954819,168.994873 125.490311,168.997787 125.258385,169.004486 
	C124.704002,168.914886 124.439888,168.733627 124.123825,168.250870 
z"/>
<path fill="#8CA3DC" opacity="1.000000" stroke="none" 
	d="
M126.178680,168.899292 
	C125.954819,168.994873 125.996017,168.533325 126.014847,168.302612 
	C126.033684,168.071899 126.506874,167.975296 126.745758,168.010300 
	C126.882332,168.368500 126.688293,168.621292 126.178680,168.899292 
z"/>
<path fill="#2B9981" opacity="1.000000" stroke="none" 
	d="
M75.489960,71.177200 
	C75.165581,69.155708 75.226730,67.156326 75.075073,65.173210 
	C74.720009,60.530083 74.772690,56.540611 80.672478,54.892654 
	C82.668915,54.334999 83.784561,50.920845 85.515137,49.003849 
	C86.561821,47.844410 88.008301,46.232769 89.289001,46.220062 
	C107.538094,46.039009 125.789566,46.096584 144.279083,46.096584 
	C145.527206,51.135586 147.802475,55.079819 153.031021,56.690933 
	C153.951218,56.974483 154.817215,58.891239 154.912003,60.115417 
	C155.167633,63.416531 154.993393,66.750931 154.996613,70.537086 
	C145.271118,70.999657 135.538773,70.997261 125.378273,70.561493 
	C126.066284,63.123138 124.804955,59.401253 120.080353,57.039188 
	C116.098671,55.048546 111.953720,55.140720 108.522011,58.150440 
	C104.798370,61.416187 103.973007,65.602074 106.043175,70.221359 
	C100.472328,70.497269 94.903580,70.833488 89.329895,71.028236 
	C85.513016,71.161598 81.689255,71.097984 77.401245,71.216537 
	C76.548882,71.276001 76.163834,71.241348 75.489960,71.177200 
M139.665146,68.004478 
	C141.639099,67.348389 143.613037,66.692307 145.586990,66.036217 
	C143.637131,65.356277 141.691605,64.663345 139.732773,64.010307 
	C139.437119,63.911747 139.013687,63.880814 138.761795,64.020836 
	C137.621155,64.654961 136.520844,65.361656 135.406021,66.042229 
	C136.548157,66.695511 137.690308,67.348801 139.665146,68.004478 
M94.893478,66.418884 
	C93.494972,64.091064 87.236702,62.906902 85.926025,64.901421 
	C85.609856,65.382561 86.809853,67.744102 87.383865,67.771942 
	C89.773537,67.887863 92.190422,67.442772 94.893478,66.418884 
z"/>
<path fill="#F2F3F5" opacity="1.000000" stroke="none" 
	d="
M131.179504,144.000000 
	C128.701111,139.242447 124.362450,137.746811 120.122635,135.522980 
	C117.290848,134.037674 115.911057,129.784073 113.895470,126.790131 
	C120.365791,122.260651 124.231171,127.025932 129.213913,130.186691 
	C129.213913,126.521309 129.577850,123.986176 129.068573,121.640625 
	C128.791794,120.365906 127.225113,118.957848 125.905243,118.393784 
	C119.825241,115.795380 115.921722,111.031227 115.906647,105.612747 
	C115.888367,99.040413 119.951874,95.862213 125.569199,93.848465 
	C126.892319,93.374138 127.932281,92.161079 129.202789,91.473061 
	C130.264114,90.898331 132.099731,89.898705 132.518936,90.276970 
	C137.241364,94.538116 145.314789,94.605484 147.424606,102.080795 
	C147.586624,102.654778 147.579971,103.276360 147.668900,104.019508 
	C144.797623,104.266296 142.183807,104.490959 139.240585,104.743927 
	C138.482010,103.698479 137.392441,102.196861 136.050903,100.347992 
	C132.914505,107.893150 134.101868,110.920921 140.562958,113.445671 
	C147.350677,116.098045 149.774185,120.193726 149.159195,126.822769 
	C148.716782,131.591888 143.444580,137.438370 135.295135,138.588348 
	C133.579025,140.066422 136.502914,144.721329 131.179504,144.000000 
M134.717926,129.063477 
	C135.945999,131.876923 137.475540,131.319946 139.095444,129.439377 
	C141.609100,126.521248 140.790054,123.971924 135.328934,120.353836 
	C135.073563,123.372307 134.870239,125.775635 134.717926,129.063477 
z"/>
<path fill="#7ECAA7" opacity="1.000000" stroke="none" 
	d="
M106.429153,70.365311 
	C103.973007,65.602074 104.798370,61.416187 108.522011,58.150440 
	C111.953720,55.140720 116.098671,55.048546 120.080353,57.039188 
	C124.804955,59.401253 126.066284,63.123138 124.902969,70.509995 
	C118.842255,70.764336 112.828690,70.636803 106.429153,70.365311 
z"/>
<path fill="#F2D06A" opacity="1.000000" stroke="none" 
	d="
M88.043213,111.169952 
	C95.463562,113.230545 97.695656,120.545784 92.446014,125.869926 
	C91.275871,127.056679 89.694183,127.837654 87.995895,128.209320 
	C81.322693,121.285034 81.405487,117.432610 88.043213,111.169952 
z"/>
<path fill="#DF9C48" opacity="1.000000" stroke="none" 
	d="
M87.648209,111.051941 
	C81.405487,117.432610 81.322693,121.285034 87.771591,127.960701 
	C81.069023,127.812981 77.692001,124.799759 77.784958,119.324455 
	C77.872612,114.161034 81.087044,111.312492 87.648209,111.051941 
z"/>
<path fill="#224860" opacity="1.000000" stroke="none" 
	d="
M69.251190,72.979233 
	C69.736320,72.373749 70.558189,71.796478 71.713791,71.317856 
	C71.227654,71.946808 70.407791,72.477119 69.251190,72.979233 
z"/>
<path fill="#7BC9A6" opacity="1.000000" stroke="none" 
	d="
M139.248795,68.003281 
	C137.690308,67.348801 136.548157,66.695511 135.406021,66.042229 
	C136.520844,65.361656 137.621155,64.654961 138.761795,64.020836 
	C139.013687,63.880814 139.437119,63.911747 139.732773,64.010307 
	C141.691605,64.663345 143.637131,65.356277 145.586990,66.036217 
	C143.613037,66.692307 141.639099,67.348389 139.248795,68.003281 
z"/>
<path fill="#7DCAA6" opacity="1.000000" stroke="none" 
	d="
M94.745399,66.811172 
	C92.190422,67.442772 89.773537,67.887863 87.383865,67.771942 
	C86.809853,67.744102 85.609856,65.382561 85.926025,64.901421 
	C87.236702,62.906902 93.494972,64.091064 94.745399,66.811172 
z"/>
<path fill="#22475F" opacity="1.000000" stroke="none" 
	d="
M134.692413,128.621216 
	C134.870239,125.775635 135.073563,123.372307 135.328934,120.353836 
	C140.790054,123.971924 141.609100,126.521248 139.095444,129.439377 
	C137.475540,131.319946 135.945999,131.876923 134.692413,128.621216 
z"/>
</svg>